{"title":"Jean-Luc Godard's Le Mépris (1963) - 1080p BRRip x265 HEVC - FR","uid":13249231,"size":1090590135,"categoryP":"video","categoryS":"hd___movies","magnet":"?xt=urn:btih:5daf916a43a42b4a73e25b9e676359dc75dc847b&amp;dn=Jean-Luc+Godard%27s+Le+Me%CC%81pris+%281963%29+-+1080p+BRRip+x265+HEVC+-+FR&amp;tr=udp%3A%2F%2Ftracker.leechers-paradise.org%3A6969&amp;tr=udp%3A%2F%2Fzer0day.ch%3A1337&amp;tr=udp%3A%2F%2Fopen.demonii.com%3A1337&amp;tr=udp%3A%2F%2Ftracker.coppersurfer.tk%3A6969&amp;tr=udp%3A%2F%2Fexodus.desync.com%3A6969","seeders":4,"leechers":4,"uploader":"BRSHNKV","files":2,"time":1453153351,"description":"Screenwriter Paul Javal's marriage to his wife Camille disintegrates during movie production as she spends time with the producer. Layered conflicts between art and business ensue.\r\n\r\n\r\n\r\nTechnical:\r\n\r\nFormat : MPEG-4\r\nFormat profile : Base Media\r\nCodec ID : isom\r\nFile size : 1.02 GiB\r\nDuration : 1h 43mn\r\nOverall bit rate : 1 408 Kbps\r\nWriting application : Lavf55.33.100\r\n\r\nVideo\r\nID : 2\r\nFormat : HEVC\r\nFormat/Info : High Efficiency Video Coding\r\nCodec ID : hvc1\r\nCodec ID/Info : High Efficiency Video Coding\r\nDuration : 1h 43mn\r\nBit rate : 1 274 Kbps\r\nWidth : 1 920 pixels\r\nHeight : 1 080 pixels\r\nDisplay aspect ratio : 16:9\r\nFrame rate mode : Constant\r\nFrame rate : 30.000 fps\r\nBits/(Pixel*Frame) : 0.020\r\nStream size : 941 MiB (90%)\r\n\r\nAudio\r\nID : 1\r\nFormat : AAC\r\nFormat/Info : Advanced Audio Codec\r\nFormat profile : LC\r\nCodec ID : 40\r\nDuration : 1h 43mn\r\nBit rate mode : Constant\r\nBit rate : 128 Kbps\r\nChannel(s) : 2 channels\r\nChannel positions : Front: L R\r\nSampling rate : 48.0 KHz\r\nCompression mode : Lossy\r\nStream size : 94.4 MiB (9%)","torrent":{"xt":"urn:btih:5daf916a43a42b4a73e25b9e676359dc75dc847b","amp;dn":"Jean-Luc+Godard%27s+Le+Me%CC%81pris+%281963%29+-+1080p+BRRip+x265+HEVC+-+FR","amp;tr":["udp%3A%2F%2Ftracker.leechers-paradise.org%3A6969","udp%3A%2F%2Fzer0day.ch%3A1337","udp%3A%2F%2Fopen.demonii.com%3A1337","udp%3A%2F%2Ftracker.coppersurfer.tk%3A6969","udp%3A%2F%2Fexodus.desync.com%3A6969"],"infoHash":"5daf916a43a42b4a73e25b9e676359dc75dc847b","infoHashBuffer":{"type":"Buffer","data":[93,175,145,106,67,164,43,74,115,226,91,158,103,99,89,220,117,220,132,123]},"announce":[],"urlList":[]}}